<svg version="1.2" xmlns="http://www.w3.org/2000/svg" viewBox="0 0 40 40" width="40" height="40"><defs><linearGradient id="P" gradientUnits="userSpaceOnUse"/><linearGradient id="g1" x2="1" href="#P" gradientTransform="matrix(28.574,16.524,-19.663,34.002,11.128,1)"><stop offset=".26" stop-color="#ffdb6e"/><stop offset="1" stop-color="#ffbc5e"/></linearGradient><linearGradient id="g2" x2="1" href="#P" gradientTransform="matrix(30.237,17.673,-20.953,35.849,10.6,0)"><stop offset=".26" stop-color="#ffdb6e"/><stop offset="1" stop-color="#ffbc5e"/></linearGradient></defs><style>.a{opacity:.1;fill:url(#g1)}.b{fill:url(#g2)}</style><path fill-rule="evenodd" class="a" d="m12 1c-1.1 0-2 0.9-2 2v34c0 1.1 0.9 2 2 2h15.9c1.1 0 2-0.9 2-2v-34c0-1.1-0.9-2-2-2h-3.2v1h-9.5v-1z"/><path fill-rule="evenodd" class="b" d="m17.5 35.7q-0.1 0-0.2 0v-0.1h4.9v1.4h-4.9q0.1 0 0.2 0zm-0.7 0.7c0-0.3 0.2-0.6 0.5-0.7v1.3c-0.3-0.1-0.5-0.4-0.5-0.6zm5.7-0.7c0.3 0 0.6 0.3 0.6 0.7 0 0.4-0.3 0.7-0.6 0.7zm-11.7-6.2c0 0.4-0.4 0.7-0.7 0.7-0.4 0-0.7-0.3-0.7-0.7zm-0.3 3c0 0 0 4.3 0 4.3h-1.3v-4.4h0.2q0 0 0 0.1zm0 4.3c0 1 0.8 1.8 1.7 1.8v1.3c-1.7 0-3.1-1.4-3.1-3.1h0.1v0.1h1.3zm-0.5-5c0.4 0 0.7 0.3 0.7 0.7h-0.2v-0.1h-1.1c0.1-0.3 0.3-0.6 0.6-0.6zm20.5-24.1c0 0.4-0.3 0.7-0.7 0.7-0.4 0-0.7-0.3-0.7-0.7zm-0.1 3q0-0.1 0-0.1v26.3h-0.1c0 1.7-1.3 3-3 3.1v-1.3h-0.1v-0.1c1 0 1.8-0.8 1.8-1.7v-26.3h0.1q0 0 0 0.1zm-0.7-0.7c0.4 0 0.6 0.3 0.7 0.6h-1.3c0.1-0.3 0.3-0.6 0.6-0.6zm-2.4 30.1h-15v-1.4h14.9v1.3q0.1 0 0.1 0zm-15-40h3v0.6h-0.6v0.7h-2.4zm4 1.9h6.9q0 0 0 0 0 0 0 0v1.3q0.1 0 0.1 0h-7zm6.9 0c0.2 0 0.3-0.2 0.3-0.3h1.4c0 0.9-0.7 1.5-1.6 1.6v-1.3c0 0-0.1 0-0.1 0zm1-2h3q0 0 0 0 0 0 0 0v1.3h-2.3v-0.7h-0.7zm3 0h0.1q0 0-0.1 0zm0.1 0c1.7 0.1 3 1.4 3 3.1v4.5h-1.3v-4.5c0-0.9-0.8-1.7-1.8-1.7v-0.1h0.1zm-2.4 1.3v0.3h-1.3v-1h0.6v0.7zm-15.8 28.1v-26.2q0 0 0 0h1.4v26.2zm0-26.3q0 0 0 0.1zm1.4 0v0.1c0-1 0.7-1.8 1.7-1.8v-1.3c-1.7 0-3 1.3-3.1 3zm5.5-1.3c0 0.1 0.1 0.3 0.2 0.3v1.3c-0.9 0-1.6-0.7-1.6-1.6z"/></svg>